<svg xmlns="http://www.w3.org/2000/svg" viewBox="0 0 108 108">
  <rect width="108" height="108" rx="24" fill="#0d1117"/>
  <path fill="#161b22" d="M14 72q0-6 6-6h68q6 0 6 6v14q0 6-6 6H20q-6 0-6-6z"/>
  <path fill="#30363d" d="M18 75h72v8H18z"/><path fill="#8b949e" d="M24 83h60l-4 5H28z"/>
  <path fill="#58a6ff" d="M29 61h7v12h-7zm43 0h7v12h-7z"/>
  <path fill="#c9d1d9" d="m33 58 43-14 2 6-43 14z"/><path fill="#8b949e" d="m38 57 37-12 1 3-37 12z"/>
  <circle cx="79" cy="38" r="6" fill="#58a6ff"/><path fill="#c9d1d9" d="m51 46 6-2 4 14-6 2z"/><circle cx="56" cy="37" r="6" fill="#58a6ff"/>
  <path fill="#fff" d="M28 76h6v4h-6zm11 0h4v4h-4zm9 0h6v4h-6zm11 0h4v4h-4zm9 0h6v4h-6z"/>
</svg>
